{
  "accessors": [
    {
      "bufferView": 2,
      "componentType": 5126,
      "count": 10944,
      "max": [
        0.3198462128639221,
        3.2484521865844727,
        1.1516687870025635
      ],
      "min": [
        -0.8801925182342529,
        0.8765670657157898,
        -0.7788563966751099
      ],
      "type": "VEC3"
    },
    {
      "bufferView": 2,
      "byteOffset": 131328,
      "componentType": 5126,
      "count": 10944,
      "max": [
        1.0,
        0.999322235584259,
        0.9999484419822693
      ],
      "min": [
        -1.0,
        -0.9984972476959229,
        -0.9999961256980896
      ],
      "type": "VEC3"
    },
    {
      "bufferView": 3,
      "componentType": 5126,
      "count": 10944,
      "max": [
        1.0,
        1.0,
        1.0,
        1.0
      ],
      "min": [
        0.9372549057006836,
        0.3607843220233917,
        0.45490196347236633,
        1.0
      ],
      "type": "VEC4"
    },
    {
      "bufferView": 0,
      "componentType": 5125,
      "count": 65184,
      "type": "SCALAR"
    },
    {
      "bufferView": 2,
      "byteOffset": 262656,
      "componentType": 5126,
      "count": 65532,
      "max": [
        0.7940771579742432,
        3.480210781097412,
        0.7089829444885254
      ],
      "min": [
        -0.8953326344490051,
        0.9217759370803833,
        -0.7118026614189148
      ],
      "type": "VEC3"
    },
    {
      "bufferView": 2,
      "byteOffset": 1049040,
      "componentType": 5126,
      "count": 65532,
      "max": [
        0.9999658465385437,
        0.999922513961792,
        0.9999586343765259
      ],
      "min": [
        -0.9999867677688599,
        -0.9984686970710754,
        -0.9999926090240479
      ],
      "type": "VEC3"
    },
    {
      "bufferView": 3,
      "byteOffset": 175104,
      "componentType": 5126,
      "count": 65532,
      "max": [
        0.8627451062202454,
        0.8705882430076599,
        0.9019607901573181,
        1.0
      ],
      "min": [
        0.8627451062202454,
        0.8705882430076599,
        0.9019607901573181,
        1.0
      ],
      "type": "VEC4"
    },
    {
      "bufferView": 0,
      "byteOffset": 260736,
      "componentType": 5125,
      "count": 346713,
      "type": "SCALAR"
    },
    {
      "bufferView": 2,
      "byteOffset": 1835424,
      "componentType": 5126,
      "count": 65532,
      "max": [
        0.7975274920463562,
        3.4801464080810547,
        0.9484971761703491
      ],
      "min": [
        -0.8953326344490051,
        0.9320857524871826,
        -0.7113860249519348
      ],
      "type": "VEC3"
    },
    {
      "bufferView": 2,
      "byteOffset": 2621808,
      "componentType": 5126,
      "count": 65532,
      "max": [
        0.9999995827674866,
        0.9999333024024963,
        0.9999490976333618
      ],
      "min": [
        -0.9999839067459106,
        -0.9998447299003601,
        -0.9999279379844666
      ],
      "type": "VEC3"
    },
    {
      "bufferView": 3,
      "byteOffset": 1223616,
      "componentType": 5126,
      "count": 65532,
      "max": [
        0.8627451062202454,
        0.8705882430076599,
        0.9019607901573181,
        1.0
      ],
      "min": [
        0.8627451062202454,
        0.8705882430076599,
        0.9019607901573181,
        1.0
      ],
      "type": "VEC4"
    },
    {
      "bufferView": 0,
      "byteOffset": 1647588,
      "componentType": 5125,
      "count": 288624,
      "type": "SCALAR"
    },
    {
      "bufferView": 2,
      "byteOffset": 3408192,
      "componentType": 5126,
      "count": 65532,
      "max": [
        0.4640251696109772,
        3.4372475147247314,
        1.0617505311965942
      ],
      "min": [
        -0.5373879075050354,
        1.8051881790161133,
        0.43413397669792175
      ],
      "type": "VEC3"
    },
    {
      "bufferView": 2,
      "byteOffset": 4194576,
      "componentType": 5126,
      "count": 65532,
      "max": [
        0.9999882578849792,
        0.9937999248504639,
        0.9999934434890747
      ],
      "min": [
        -0.9999775886535645,
        -0.9998075366020203,
        -0.9999334216117859
      ],
      "type": "VEC3"
    },
    {
      "bufferView": 3,
      "byteOffset": 2272128,
      "componentType": 5126,
      "count": 65532,
      "max": [
        0.8627451062202454,
        0.8705882430076599,
        0.9019607901573181,
        1.0
      ],
      "min": [
        0.8627451062202454,
        0.8705882430076599,
        0.9019607901573181,
        1.0
      ],
      "type": "VEC4"
    },
    {
      "bufferView": 0,
      "byteOffset": 2802084,
      "componentType": 5125,
      "count": 343803,
      "type": "SCALAR"
    },
    {
      "bufferView": 2,
      "byteOffset": 4980960,
      "componentType": 5126,
      "count": 47904,
      "max": [
        0.7534627914428711,
        3.466392755508423,
        1.0617505311965942
      ],
      "min": [
        -0.8141665458679199,
        0.9300439357757568,
        -0.6903541088104248
      ],
      "type": "VEC3"
    },
    {
      "bufferView": 2,
      "byteOffset": 5555808,
      "componentType": 5126,
      "count": 47904,
      "max": [
        0.9999882578849792,
        0.9990969300270081,
        0.9999933242797852
      ],
      "min": [
        -0.9998757243156433,
        -0.9996861219406128,
        -0.9999811053276062
      ],
      "type": "VEC3"
    },
    {
      "bufferView": 3,
      "byteOffset": 3320640,
      "componentType": 5126,
      "count": 47904,
      "max": [
        0.8627451062202454,
        0.8705882430076599,
        0.9019607901573181,
        1.0
      ],
      "min": [
        0.8627451062202454,
        0.8705882430076599,
        0.9019607901573181,
        1.0
      ],
      "type": "VEC4"
    },
    {
      "bufferView": 0,
      "byteOffset": 4177296,
      "componentType": 5125,
      "count": 184830,
      "type": "SCALAR"
    },
    {
      "bufferView": 2,
      "byteOffset": 6130656,
      "componentType": 5126,
      "count": 65532,
      "max": [
        0.8934380412101746,
        2.3516993522644043,
        2.0666050910949707
      ],
      "min": [
        -1.3547687530517578,
        0.07541537284851074,
        -0.13065600395202637
      ],
      "type": "VEC3"
    },
    {
      "bufferView": 2,
      "byteOffset": 6917040,
      "componentType": 5126,
      "count": 65532,
      "max": [
        0.9999836683273315,
        0.9999624490737915,
        0.9999909400939941
      ],
      "min": [
        -0.9999929666519165,
        -0.9998413324356079,
        -0.9999991655349731
      ],
      "type": "VEC3"
    },
    {
      "bufferView": 3,
      "byteOffset": 4087104,
      "componentType": 5126,
      "count": 65532,
      "max": [
        1.0,
        1.0,
        1.0,
        1.0
      ],
      "min": [
        0.9372549057006836,
        0.3607843220233917,
        0.45490196347236633,
        1.0
      ],
      "type": "VEC4"
    },
    {
      "bufferView": 0,
      "byteOffset": 4916616,
      "componentType": 5125,
      "count": 368196,
      "type": "SCALAR"
    },
    {
      "bufferView": 2,
      "byteOffset": 7703424,
      "componentType": 5126,
      "count": 57232,
      "max": [
        0.6239733099937439,
        0.9948661923408508,
        1.174991250038147
      ],
      "min": [
        -0.7887333035469055,
        0.07541537284851074,
        0.30791381001472473
      ],
      "type": "VEC3"
    },
    {
      "bufferView": 2,
      "byteOffset": 8390208,
      "componentType": 5126,
      "count": 57232,
      "max": [
        0.9999819993972778,
        0.9999228119850159,
        0.9999909400939941
      ],
      "min": [
        -0.999963104724884,
        -0.9999029636383057,
        -0.999981701374054
      ],
      "type": "VEC3"
    },
    {
      "bufferView": 3,
      "byteOffset": 5135616,
      "componentType": 5126,
      "count": 57232,
      "max": [
        0.9803921580314636,
        0.47843137383461,
        0.6509804129600525,
        1.0
      ],
      "min": [
        0.9803921580314636,
        0.47843137383461,
        0.6509804129600525,
        1.0
      ],
      "type": "VEC4"
    },
    {
      "bufferView": 0,
      "byteOffset": 6389400,
      "componentType": 5125,
      "count": 308478,
      "type": "SCALAR"
    },
    {
      "bufferView": 2,
      "byteOffset": 9076992,
      "componentType": 5126,
      "count": 55587,
      "max": [
        1.4964804649353027,
        3.4074883460998535,
        2.2846267223358154
      ],
      "min": [
        -1.4715689420700073,
        -2.6174302101135254,
        -0.1347775161266327
      ],
      "type": "VEC3"
    },
    {
      "bufferView": 2,
      "byteOffset": 9744036,
      "componentType": 5126,
      "count": 55587,
      "max": [
        0.999995768070221,
        0.9998732805252075,
        0.9999908804893494
      ],
      "min": [
        -0.9999114871025085,
        -0.999941885471344,
        -0.9999156594276428
      ],
      "type": "VEC3"
    },
    {
      "bufferView": 3,
      "byteOffset": 6051328,
      "componentType": 5126,
      "count": 55587,
      "max": [
        1.0,
        1.0,
        1.0,
        1.0
      ],
      "min": [
        1.0,
        1.0,
        1.0,
        1.0
      ],
      "type": "VEC4"
    },
    {
      "bufferView": 1,
      "componentType": 5126,
      "count": 55587,
      "max": [
        0.9751330018043518,
        0.9417279958724976
      ],
      "min": [
        0.0,
        0.0
      ],
      "type": "VEC2"
    },
    {
      "bufferView": 0,
      "byteOffset": 7623312,
      "componentType": 5125,
      "count": 316416,
      "type": "SCALAR"
    }
  ],
  "asset": {
    "extras": {
      "author": "GreyWax (https://sketchfab.com/GreyWax)",
      "license": "CC-BY-4.0 (http://creativecommons.org/licenses/by/4.0/)",
      "source": "https://sketchfab.com/3d-models/sagiri-0da1c5e94b544e859d4f0e1878749bb8",
      "title": "Sagiri"
    },
    "generator": "Sketchfab-14.36.1",
    "version": "2.0"
  },
  "bufferViews": [
    {
      "buffer": 0,
      "byteLength": 8888976,
      "name": "floatBufferViews",
      "target": 34963
    },
    {
      "buffer": 0,
      "byteLength": 444696,
      "byteOffset": 8888976,
      "byteStride": 8,
      "name": "floatBufferViews",
      "target": 34962
    },
    {
      "buffer": 0,
      "byteLength": 10411080,
      "byteOffset": 9333672,
      "byteStride": 12,
      "name": "floatBufferViews",
      "target": 34962
    },
    {
      "buffer": 0,
      "byteLength": 6940720,
      "byteOffset": 19744752,
      "byteStride": 16,
      "name": "floatBufferViews",
      "target": 34962
    }
  ],
  "buffers": [
    {
      "byteLength": 26685472,
      "uri": "scene.bin"
    }
  ],
  "images": [
    {
      "uri": "textures/body_baseColor.png"
    }
  ],
  "materials": [
    {
      "doubleSided": true,
      "name": "little__0",
      "pbrMetallicRoughness": {
        "metallicFactor": 0.0,
        "roughnessFactor": 0.6
      }
    },
    {
      "doubleSided": true,
      "name": "body",
      "pbrMetallicRoughness": {
        "baseColorTexture": {
          "index": 0
        },
        "metallicFactor": 0.0,
        "roughnessFactor": 0.8211145618000169
      }
    }
  ],
  "meshes": [
    {
      "name": "little__0",
      "primitives": [
        {
          "attributes": {
            "COLOR_0": 2,
            "NORMAL": 1,
            "POSITION": 0
          },
          "indices": 3,
          "material": 0,
          "mode": 4
        }
      ]
    },
    {
      "name": "hair__0",
      "primitives": [
        {
          "attributes": {
            "COLOR_0": 6,
            "NORMAL": 5,
            "POSITION": 4
          },
          "indices": 7,
          "material": 0,
          "mode": 4
        }
      ]
    },
    {
      "name": "hair__0",
      "primitives": [
        {
          "attributes": {
            "COLOR_0": 10,
            "NORMAL": 9,
            "POSITION": 8
          },
          "indices": 11,
          "material": 0,
          "mode": 4
        }
      ]
    },
    {
      "name": "hair__0",
      "primitives": [
        {
          "attributes": {
            "COLOR_0": 14,
            "NORMAL": 13,
            "POSITION": 12
          },
          "indices": 15,
          "material": 0,
          "mode": 4
        }
      ]
    },
    {
      "name": "hair__0",
      "primitives": [
        {
          "attributes": {
            "COLOR_0": 18,
            "NORMAL": 17,
            "POSITION": 16
          },
          "indices": 19,
          "material": 0,
          "mode": 4
        }
      ]
    },
    {
      "name": "clothe__0",
      "primitives": [
        {
          "attributes": {
            "COLOR_0": 22,
            "NORMAL": 21,
            "POSITION": 20
          },
          "indices": 23,
          "material": 0,
          "mode": 4
        }
      ]
    },
    {
      "name": "clothe__0",
      "primitives": [
        {
          "attributes": {
            "COLOR_0": 26,
            "NORMAL": 25,
            "POSITION": 24
          },
          "indices": 27,
          "material": 0,
          "mode": 4
        }
      ]
    },
    {
      "name": "body_body_0",
      "primitives": [
        {
          "attributes": {
            "COLOR_0": 30,
            "NORMAL": 29,
            "POSITION": 28,
            "TEXCOORD_0": 31
          },
          "indices": 32,
          "material": 1,
          "mode": 4
        }
      ]
    }
  ],
  "nodes": [
    {
      "children": [
        1
      ],
      "matrix": [
        1.0,
        0.0,
        0.0,
        0.0,
        0.0,
        2.220446049250313e-16,
        -1.0,
        0.0,
        0.0,
        1.0,
        2.220446049250313e-16,
        0.0,
        0.0,
        0.0,
        0.0,
        1.0
      ],
      "name": "Sketchfab_model"
    },
    {
      "children": [
        2
      ],
      "matrix": [
        0.009999999776482582,
        0.0,
        0.0,
        0.0,
        0.0,
        0.0,
        0.009999999776482582,
        0.0,
        0.0,
        -0.009999999776482582,
        0.0,
        0.0,
        0.0,
        0.0,
        0.0,
        1.0
      ],
      "name": "fd85f9b7107d41d28f4dc325442167e0.fbx"
    },
    {
      "children": [
        3,
        5,
        10,
        13
      ],
      "name": "RootNode"
    },
    {
      "children": [
        4
      ],
      "matrix": [
        1.0,
        0.0,
        0.0,
        0.0,
        0.0,
        0.9999999999999867,
        1.6292067073209113e-07,
        0.0,
        0.0,
        -1.6292067073209113e-07,
        0.9999999999999867,
        0.0,
        0.0,
        0.0,
        0.0,
        1.0
      ],
      "name": "little"
    },
    {
      "mesh": 0,
      "name": "little__0"
    },
    {
      "children": [
        6,
        7,
        8,
        9
      ],
      "matrix": [
        1.0,
        0.0,
        0.0,
        0.0,
        0.0,
        0.9999999999999867,
        1.6292067073209113e-07,
        0.0,
        0.0,
        -1.6292067073209113e-07,
        0.9999999999999867,
        0.0,
        0.0,
        0.0,
        0.0,
        1.0
      ],
      "name": "hair"
    },
    {
      "mesh": 1,
      "name": "hair__0"
    },
    {
      "mesh": 2,
      "name": "hair__0"
    },
    {
      "mesh": 3,
      "name": "hair__0"
    },
    {
      "mesh": 4,
      "name": "hair__0"
    },
    {
      "children": [
        11,
        12
      ],
      "matrix": [
        1.0,
        0.0,
        0.0,
        0.0,
        0.0,
        0.9999999999999867,
        1.6292067073209113e-07,
        0.0,
        0.0,
        -1.6292067073209113e-07,
        0.9999999999999867,
        0.0,
        0.0,
        0.0,
        0.0,
        1.0
      ],
      "name": "clothe"
    },
    {
      "mesh": 5,
      "name": "clothe__0"
    },
    {
      "mesh": 6,
      "name": "clothe__0"
    },
    {
      "children": [
        14
      ],
      "matrix": [
        1.0,
        0.0,
        0.0,
        0.0,
        0.0,
        0.9999999999999867,
        1.6292067073209113e-07,
        0.0,
        0.0,
        -1.6292067073209113e-07,
        0.9999999999999867,
        0.0,
        0.0,
        0.0,
        0.0,
        1.0
      ],
      "name": "body"
    },
    {
      "mesh": 7,
      "name": "body_body_0"
    }
  ],
  "samplers": [
    {
      "magFilter": 9729,
      "minFilter": 9987,
      "wrapS": 10497,
      "wrapT": 10497
    }
  ],
  "scene": 0,
  "scenes": [
    {
      "name": "Sketchfab_Scene",
      "nodes": [
        0
      ]
    }
  ],
  "textures": [
    {
      "sampler": 0,
      "source": 0
    }
  ]
}
